<?xml version="1.0" encoding="utf-8"?>
<!-- Generator: Adobe Illustrator 24.3.0, SVG Export Plug-In . SVG Version: 6.00 Build 0)  -->
<svg height="100%" width="auto" version="1.1" id="Layer_1" xmlns="http://www.w3.org/2000/svg" xmlns:xlink="http://www.w3.org/1999/xlink" x="0px" y="0px"
	 viewBox="0 0 512 512" style="enable-background:new 0 0 512 512;" xml:space="preserve">
<style type="text/css">
	.st0{fill:#D4A10F;}
</style>
<g id="XMLID_1_">
	<path id="XMLID_3_" class="st0" d="M237.27,510.2c-15.43-5.05-30.02-19.5-40.4-39.69c-2.38-4.63-4.35-8.84-4.35-9.26
		c0-1.12,7.15-5.19,7.57-4.21c0.14,0.42,2.24,3.93,4.49,7.71c17.53,28.05,41.52,31.14,52.88,6.73c3.23-6.87,4.77-13.04,6.59-27.07
		c2.67-19.92,6.73-44.32,8.42-51.2c5.05-19.08,15.99-34.22,43.2-60.03c23.7-22.44,35.07-39.84,36.47-55.69
		c0.28-3.23,0.28-5.75-0.14-5.75c-0.28,0-2.95,2.1-5.75,4.49c-2.81,2.38-9.4,7.71-14.73,11.64c-13.47,10.1-19.22,15.29-23.28,20.76
		c-1.96,2.67-3.65,4.77-4.07,4.77c-0.28,0-1.96-4.49-3.79-9.82c-2.52-7.71-3.23-10.94-3.37-15.29c0-6.45,1.12-8.98,7.57-16.97
		c8.42-10.52,12.76-22.16,12.76-34.36c0-13.04-5.75-24.41-22.44-44.46c-7.43-8.98-29.03-31.98-30.02-31.98
		c-0.28,0-0.42,5.19-0.42,11.36c0.42,26.09-4.49,45.87-18.8,74.48c-9.12,18.23-10.94,22.58-14.59,33.66
		c-3.79,11.64-5.05,17.95-5.47,29.32l-0.42,10.24l-3.37,3.23c-1.82,1.82-3.51,3.09-3.79,2.81c-1.12-1.12-1.96-16.55-1.68-26.51
		c0.7-18.23,5.05-34.51,15.57-59.05c19.92-46.57,25.11-63.82,24.13-80.37c-0.42-6.87-1.12-8.98-7.85-27.35
		c-5.89-15.71-4.21-31,4.91-45.17c2.24-3.65,2.52-4.49,1.82-6.17c-0.42-1.12-2.24-5.19-3.93-8.98c-5.33-11.92-6.59-18.23-6.59-31.56
		c0-12.34,0.84-17.53,4.49-25.53c3.23-6.87,11.92-15.01,16.41-15.01c3.09,0,2.67,1.26-1.68,4.49c-9.12,6.87-12.34,18.8-9.26,33.8
		c3.23,15.57,9.68,26.65,31,53.3c50.36,62.7,75.6,99.59,95.38,138.86c12.62,24.97,17.67,38.01,23,58.91
		c5.33,21.46,7.15,39.27,5.61,57.37c-3.37,39.55-19.22,67.05-46.43,80.79c-18.66,9.4-43.2,10.94-65.08,4.21
		c-8-2.52-7.71-1.96-5.89-12.9c1.82-10.94,3.23-15.29,4.63-15.15c0.56,0,4.35,0.7,8.42,1.4c17.81,3.23,37.17-0.7,51.76-10.66
		c4.77-3.23,13.33-11.5,17.53-16.97c7.15-9.26,12.9-21.46,16.13-34.79c2.52-9.82,3.37-29.74,1.82-40.12
		c-1.12-8-5.19-21.46-9.82-32.68c-15.99-39.13-44.04-81.21-104.5-156.82c-2.67-3.37-7.71-9.96-11.08-14.45
		c-3.37-4.63-6.45-8.28-6.73-8.28c-0.98,0-4.49,6.03-5.89,9.96c-0.98,2.81-1.26,5.61-0.98,9.96c0.7,11.5,5.47,18.8,29.88,44.32
		c14.87,15.57,23.28,25.81,30.72,37.03c13.75,21.04,18.8,42.08,14.03,59.47c-0.42,1.68-0.7,3.23-0.56,3.51
		c0.98,0.98,15.85-12.48,20.34-18.51c1.54-2.1,3.09-3.37,3.37-3.09c0.98,0.98,5.75,20.62,7.57,30.72
		c2.52,14.03,3.37,24.13,2.95,33.66c-0.56,10.24-1.96,15.29-7.15,25.39c-5.33,10.24-12.34,18.94-32.82,40.26
		c-20.2,21.04-27.35,29.74-30.02,36.61c-2.52,6.87-5.61,23.7-7.43,40.96c-2.67,25.25-5.05,42.78-7.01,49.09
		c-2.81,9.4-7.71,15.85-14.87,19.36c-4.49,2.24-6.03,2.52-12.48,2.81C244.28,512.16,242.18,511.88,237.27,510.2z"/>
	<path id="XMLID_4_" class="st0" d="M314.69,478.07c-5.89-2.95-10.1-9.26-14.59-21.74c-1.54-4.35-1.96-6.31-1.26-6.87
		c1.4-1.4,2.81,0.42,4.63,5.33c2.38,6.31,4.77,10.38,7.15,11.64c1.68,0.98,2.24,0.98,4.21,0c1.82-0.84,2.38-1.68,2.52-3.93
		c0.42-5.47,3.51-2.67,5.89,5.61c1.68,5.75,1.54,6.73-0.98,9.4C319.6,480.18,319.04,480.18,314.69,478.07z"/>
	<path id="XMLID_7_" class="st0" d="M205.15,129.24c0,8.42,7.01,15.57,15.57,15.57c3.79,0,7.43-1.4,10.1-3.79l1.96-1.4l-0.28,5.33
		c-0.42,7.01-3.09,12.48-9.68,19.64c-7.15,7.71-14.03,12.62-36.61,26.23c-30.86,18.66-41.24,25.95-52.46,36.75
		c-14.31,13.75-24.27,30.44-28.61,47.97c-5.89,23.85-4.07,46.85,6.03,73.36c2.95,7.57,2.95,8,3.37,20.9
		c1.12,34.22,9.68,57.65,27.49,75.32c8.98,8.98,17.25,13.18,28.05,14.59c2.67,0.28,6.59,0.42,8.7,0.28
		c25.81-2.24,37.03-23.42,42.5-80.51c0.7-7.43,1.68-14.59,2.1-15.99c0.56-1.68,5.61-6.87,15.71-15.99
		c15.71-14.31,18.8-18.37,18.8-24.41c0-3.65-3.09-25.81-3.79-26.51c-0.28-0.28-2.1,1.54-3.93,4.21
		c-3.23,4.35-13.33,14.17-26.51,25.81c-8.7,7.57-10.24,11.64-13.18,32.54c-5.19,36.47-11.64,55.69-22.58,66.63
		c-10.1,10.1-26.51,12.62-39.41,6.17c-13.04-6.59-22.86-26.51-23.99-49.23l-0.42-8.84l6.03,5.61c8,7.43,14.45,10.66,21.32,10.66
		c6.45,0,8.7-0.7,12.06-3.65c4.91-4.35,7.29-11.36,7.29-21.88c0-20.9-11.22-46.01-23.42-52.46c-4.91-2.52-11.5-2.38-16.27,0.56
		c-4.63,2.81-9.12,9.12-11.36,15.85c-0.98,2.81-2.1,5.19-2.52,5.47c-1.4,0.7-2.81-8.84-2.81-19.64c0-8,0.42-12.9,1.54-18.66
		c4.49-21.74,13.04-37.31,30.16-54.28c11.5-11.5,23.42-20.62,50.07-38.15c20.62-13.61,29.46-20.9,34.36-28.47
		c2.1-3.37,2.52-3.65,2.81-2.24c0.7,5.19-5.47,21.18-19.78,50.78c-11.78,24.27-15.43,32.82-21.32,49.09
		c-7.43,20.62-12.06,38.85-14.73,58.63c-1.68,12.62-2.38,38.71-1.26,55.26c0.98,14.73,4.21,37.87,5.47,39.27
		c0.56,0.56,1.54-0.14,3.37-1.82l2.67-2.67l-1.4-8.56c-5.19-31.28-3.23-64.8,5.75-99.03c6.45-24.27,14.03-43.62,32.26-81.21
		c15.99-33.24,18.94-44.46,18.09-71.11c-0.7-22.16-3.51-35.07-9.4-41.66c-3.23-3.65-6.59-5.47-11.08-5.47
		C211.04,113.67,205.15,120.82,205.15,129.24z M147.36,337.67c1.54,0,2.95,0.42,4.21,1.12c2.81,1.4,6.87,7.57,6.87,10.38
		c0,1.12-0.98,3.79-2.24,5.89c-1.82,3.09-3.23,4.35-6.31,6.03c-5.33,2.67-11.78,2.81-17.25,0.28c-5.89-2.81-6.17-3.23-3.51-8.84
		C133.47,343.28,140.9,337.53,147.36,337.67z"/>
	<path id="XMLID_8_" class="st0" d="M258.03,406.68c-9.82-9.4-19.64-23.14-26.65-37.59l-2.95-6.03l3.37-3.51
		c1.82-1.96,3.79-3.51,4.35-3.51c0.42,0,2.24,1.96,3.93,4.49c3.79,5.47,16.55,18.94,23.7,24.69c4.63,3.79,5.19,4.49,4.77,6.31
		c-0.28,1.12-1.4,5.89-2.38,10.8c-0.98,4.77-1.96,8.98-2.24,9.12C263.78,411.73,261.11,409.63,258.03,406.68z"/>
	<path id="XMLID_9_" class="st0" d="M153.53,285.91c-2.81-2.95-3.51-6.59-2.67-13.33c0.42-3.79,1.54-7.01,3.51-10.8
		c5.05-9.68,21.18-23.85,21.18-18.51c0,0.28-3.23,3.93-7.29,8c-10.8,11.08-14.31,19.22-10.52,24.13c2.67,3.37,7.71,2.38,7.71-1.54
		c0-2.24,2.52-5.33,3.79-4.63s1.12,3.37-0.14,7.71C166.01,286.75,158.58,291.1,153.53,285.91z"/>
	<path id="XMLID_10_" class="st0" d="M260.55,275.25c-1.96-7.01-1.4-8,17.67-28.47c7.85-8.42,15.15-16.69,16.41-18.37
		c2.38-3.23,2.52-3.09,3.65,2.38c0.56,2.52,0.42,3.79-0.56,6.03c-0.7,1.54-7.71,9.82-15.57,18.37
		c-7.85,8.56-15.57,17.25-16.97,19.36c-1.54,2.1-2.95,3.79-3.23,3.79C261.53,278.06,260.97,276.79,260.55,275.25z"/>
	<circle id="XMLID_11_" class="st0" cx="200.52" cy="155.61" r="15.57"/>
	
		<rect id="XMLID_12_" x="268.79" y="319.53" transform="matrix(0.4353 -0.9003 0.9003 0.4353 -138.6082 440.2446)" class="st0" width="25.67" height="22.16"/>
	
		<rect id="XMLID_13_" x="334.16" y="361.36" transform="matrix(0.4353 -0.9003 0.9003 0.4353 -139.356 522.7209)" class="st0" width="25.67" height="22.16"/>
	
		<rect id="XMLID_14_" x="227.3" y="414.31" transform="matrix(0.6331 -0.7741 0.7741 0.6331 -241.1287 342.0726)" class="st0" width="25.95" height="22.16"/>
	
		<rect id="XMLID_15_" x="223.36" y="449.33" transform="matrix(0.6331 -0.7741 0.7741 0.6331 -269.6834 351.8754)" class="st0" width="25.95" height="22.16"/>
</g>
</svg>
