<svg id="Layer_1" data-name="Layer 1" xmlns="http://www.w3.org/2000/svg" viewBox="0 0 498 81"><defs><style>.cls-1{font-size:72px;font-family:Biotif-Black, Biotif;font-weight:800;}.cls-2{letter-spacing:-0.03em;}.cls-3,.cls-4{fill:none;}.cls-4{stroke:#000;stroke-width:6px;}</style></defs><text class="cls-1" transform="translate(7 63.95)">NE<tspan class="cls-2" x="99.65" y="0">W</tspan><tspan x="173.95" y="0">SF</tspan><tspan class="cls-3" x="260.06" y="0">O </tspan><tspan x="335.81" y="0">RCE</tspan></text><path class="cls-4" d="M304.35,10a28.5,28.5,0,1,0,.3,0Z"/><path class="cls-4" d="M304.5,10V67M333,38.5H276M282.43,21a38,38,0,0,0,44.14,0m0,35.08a38,38,0,0,0-44.14,0m19.88-45.31A36.54,36.54,0,0,0,298,62.22a35.58,35.58,0,0,0,4.34,4.34m4.38,0a36.54,36.54,0,0,0,0-55.83"/></svg>